<svg width="37" height="27" viewBox="0 0 37 27" fill="none" xmlns="http://www.w3.org/2000/svg">
<path d="M36.299 8.91563C36.5809 8.69766 37 8.90156 37 9.24609V23.625C37 25.4883 35.4463 27 33.5312 27H3.46875C1.55371 27 0 25.4883 0 23.625V9.25312C0 8.90156 0.411914 8.70469 0.700976 8.92266C2.31973 10.1461 4.46602 11.7 11.8371 16.9102C13.3619 17.993 15.9346 20.2711 18.5 20.257C21.0799 20.2781 23.7031 17.9508 25.1701 16.9102C32.5412 11.7 34.6803 10.1391 36.299 8.91563ZM18.5 18C20.1766 18.0281 22.5902 15.9469 23.8043 15.0891C33.3939 8.31797 34.1238 7.72734 36.3352 6.03984C36.7543 5.72344 37 5.23125 37 4.71094V3.375C37 1.51172 35.4463 0 33.5312 0H3.46875C1.55371 0 0 1.51172 0 3.375V4.71094C0 5.23125 0.245703 5.71641 0.664844 6.03984C2.87617 7.72031 3.60606 8.31797 13.1957 15.0891C14.4098 15.9469 16.8234 18.0281 18.5 18Z" fill="black"/>
</svg>
