<svg width="29" height="24" viewBox="0 0 29 24" fill="none" xmlns="http://www.w3.org/2000/svg">
<path d="M11.2435 16.5433C11.2435 17.8495 10.585 19.9869 9.02625 19.9869C7.4675 19.9869 6.80896 17.8495 6.80896 16.5433C6.80896 15.237 7.4675 13.0996 9.02625 13.0996C10.585 13.0996 11.2435 15.237 11.2435 16.5433ZM29 13.3871C29 15.3808 28.8067 17.4932 27.9427 19.3244C25.6529 24.1118 19.3575 23.9993 14.8504 23.9993C10.2708 23.9993 3.60083 24.168 1.22042 19.3244C0.338333 17.512 0 15.3808 0 13.3871C0 10.7684 0.839792 8.2935 2.50729 6.28731C2.19313 5.29984 2.04208 4.26237 2.04208 3.2374C2.04208 1.89369 2.33812 1.21871 2.92417 0C5.66104 0 7.41312 0.562483 9.4975 2.24993C11.2496 1.8187 13.05 1.62495 14.8565 1.62495C16.4877 1.62495 18.131 1.8062 19.714 2.19993C21.7681 0.531234 23.5202 0 26.2269 0C26.819 1.21871 27.109 1.89369 27.109 3.2374C27.109 4.26237 26.9519 5.28109 26.6437 6.24981C28.3052 8.27475 29 10.7684 29 13.3871ZM25.1152 16.5433C25.1152 13.7996 23.5021 11.3809 20.6746 11.3809C19.5327 11.3809 18.4392 11.5934 17.2913 11.7559C16.391 11.8996 15.4908 11.9559 14.5665 11.9559C13.6481 11.9559 12.7479 11.8996 11.8417 11.7559C10.7119 11.5934 9.60625 11.3809 8.45833 11.3809C5.63083 11.3809 4.01771 13.7996 4.01771 16.5433C4.01771 22.0306 8.87521 22.8743 13.1044 22.8743H16.0165C20.2638 22.8743 25.1152 22.0368 25.1152 16.5433ZM20.1248 13.0996C18.566 13.0996 17.9075 15.237 17.9075 16.5433C17.9075 17.8495 18.566 19.9869 20.1248 19.9869C21.6835 19.9869 22.3421 17.8495 22.3421 16.5433C22.3421 15.237 21.6835 13.0996 20.1248 13.0996Z" fill="#5EFA81"/>
</svg>
