<svg width="36" height="30" viewBox="0 0 36 30" fill="none" xmlns="http://www.w3.org/2000/svg">
<path d="M13.9575 20.6791C13.9575 22.3118 13.14 24.9836 11.205 24.9836C9.27 24.9836 8.4525 22.3118 8.4525 20.6791C8.4525 19.0463 9.27 16.3745 11.205 16.3745C13.14 16.3745 13.9575 19.0463 13.9575 20.6791ZM36 16.7339C36 19.226 35.76 21.8665 34.6875 24.1555C31.845 30.1397 24.03 29.9991 18.435 29.9991C12.75 29.9991 4.47 30.21 1.515 24.1555C0.42 21.89 0 19.226 0 16.7339C0 13.4605 1.0425 10.3669 3.1125 7.85914C2.7225 6.6248 2.535 5.32797 2.535 4.04675C2.535 2.36712 2.9025 1.52339 3.63 0C7.0275 0 9.2025 0.703104 11.79 2.81242C13.965 2.27337 16.2 2.03119 18.4425 2.03119C20.4675 2.03119 22.5075 2.25775 24.4725 2.74992C27.0225 0.664042 29.1975 0 32.5575 0C33.2925 1.52339 33.6525 2.36712 33.6525 4.04675C33.6525 5.32797 33.4575 6.60137 33.075 7.81227C35.1375 10.3434 36 13.4605 36 16.7339ZM31.1775 20.6791C31.1775 17.2495 29.175 14.2261 25.665 14.2261C24.2475 14.2261 22.89 14.4918 21.465 14.6949C20.3475 14.8746 19.23 14.9449 18.0825 14.9449C16.9425 14.9449 15.825 14.8746 14.7 14.6949C13.2975 14.4918 11.925 14.2261 10.5 14.2261C6.99 14.2261 4.9875 17.2495 4.9875 20.6791C4.9875 27.5382 11.0175 28.5929 16.2675 28.5929H19.8825C25.155 28.5929 31.1775 27.5461 31.1775 20.6791ZM24.9825 16.3745C23.0475 16.3745 22.23 19.0463 22.23 20.6791C22.23 22.3118 23.0475 24.9836 24.9825 24.9836C26.9175 24.9836 27.735 22.3118 27.735 20.6791C27.735 19.0463 26.9175 16.3745 24.9825 16.3745Z" fill="black"/>
</svg>
