<svg width="30" height="30" viewBox="0 0 30 30" fill="none" xmlns="http://www.w3.org/2000/svg">
<path d="M6.71502 30H0.495425V9.97098H6.71502V30ZM3.60187 7.23884C1.61348 7.23884 0 5.59152 0 3.60268C0 1.61384 1.61348 0 3.60187 0C5.59027 0 7.20375 1.61384 7.20375 3.60268C7.20375 5.59152 5.59027 7.23884 3.60187 7.23884ZM29.9933 30H23.7871V20.25C23.7871 17.9263 23.7402 14.9464 20.5534 14.9464C17.3198 14.9464 16.8244 17.471 16.8244 20.0826V30H10.6115V9.97098H16.5767V12.7031H16.6637C17.4939 11.1295 19.5224 9.46875 22.5485 9.46875C28.8418 9.46875 30 13.6138 30 18.9978V30H29.9933Z" fill="black"/>
</svg>
