<svg width="24" height="24" viewBox="0 0 24 24" fill="none" xmlns="http://www.w3.org/2000/svg">
<path d="M5.37201 24H0.39634V7.97679H5.37201V24ZM2.8815 5.79107C1.29078 5.79107 0 4.47321 0 2.88214C0 1.29107 1.29078 0 2.8815 0C4.47222 0 5.763 1.29107 5.763 2.88214C5.763 4.47321 4.47222 5.79107 2.8815 5.79107ZM23.9946 24H19.0297V16.2C19.0297 14.3411 18.9922 11.9571 16.4428 11.9571C13.8558 11.9571 13.4595 13.9768 13.4595 16.0661V24H8.48918V7.97679H13.2613V10.1625H13.331C13.9951 8.90357 15.6179 7.575 18.0388 7.575C23.0734 7.575 24 10.8911 24 15.1982V24H23.9946Z" fill="white"/>
</svg>
