<svg id="Layer_1" data-name="Layer 1" xmlns="http://www.w3.org/2000/svg" viewBox="0 0 1300 925"><defs><style>.cls-1{fill:#5efa81;}.cls-2{fill:#00c652;}</style></defs><title>Menu</title><rect class="cls-1" x="0.5" y="0.5" width="1299" height="924"/><path d="M1299,1V924H1V1H1299m1-1H0V925H1300V0Z"/><path class="cls-2" d="M326.55,95.64l1.14-.62,13.56,9.49q13.56,9.48,13.66,10-.17,2.26-5.32,10.31a87.07,87.07,0,0,1-8.91,12.05q-3.93,3.91-4.31,4.12c-.37.06-3.57-2-9.64-6.27l-2-1.4c-.69-.48-1.35-.9-2-1.26s-1.2-.72-1.73-1.09a12.43,12.43,0,0,0-1.41-.87,9,9,0,0,1-1.09-.64l-.64-.45-.27.05q-.3,3.12-7.77,13.81-7.94,11.32-10.77,12.66c-.37.07-3.52-2-9.48-6.15l-2.79-2c-.9-.63-1.75-1.18-2.53-1.65s-1.46-.91-2-1.32l-1.2-.83-.59-.18q-.36,3.56-7.72,14.09Q265.14,168.4,261.92,170q-.81.13-9.58-6l-2.8-1.95q-1.35-1-2.52-1.65c-.79-.47-1.47-.91-2.05-1.32a3.75,3.75,0,0,0-1.31-.68l-.48-.33q-.35,3.55-7.72,14.08-7.61,10.85-10.82,12.39l1.12.79c.67.62,1.7,1.47,3.1,2.52s2.9,2.15,4.49,3.27q8.78,6.13,8.92,7-.17,2.26-5.26,10.23a85.66,85.66,0,0,1-8.86,12c-2.69,2.72-4.17,4.14-4.42,4.28l1,.94q1.11.78,3.21,2.37c1.4,1.06,2.89,2.14,4.49,3.26q8.92,6.26,9,6.8-.16,2.26-5.32,10.3a87.28,87.28,0,0,1-8.91,12.06c-2.62,2.6-4.06,4-4.31,4.12l.37.49c.21.15.56.44,1.06.86s1.09.93,1.8,1.5,1.51,1.18,2.42,1.81l2.79,2q9.09,6.36,9.18,6.9c-.1,1.51-1.88,4.95-5.31,10.31a87,87,0,0,1-8.92,12.06q-3.91,3.9-4.46,4t-14.1-9.4l-13.45-9.65.58-1.5q1.67-4.77,7.76-13.46t9.43-11.1l1.26-.78-9.14-6.64-9-6.52.58-1.5q1.78-4.94,7.76-13.47t9.32-10.94l1.38-.94-9-6.52L196,205.34l.58-1.5q1.78-4.93,7.82-13.54t9.38-11l1.37-.94L206.08,172l-9.14-6.64.57-1.5q1.78-4.92,8.07-13.72t9.4-10.89l1.15-.62,8.93,6.25,9.09,6.37.64-1.93q1.91-5.08,8.06-13.73t9.41-10.88l1-.74,9.09,6.37,9.09,6.37.53-1.78q1.89-5.09,8.06-13.72t9.41-10.89l1.1-.89,9.09,6.37,8.93,6.25.69-1.66q2-5.25,8-13.86T326.55,95.64Z"/><path class="cls-2" d="M389.71,139.86l1.15-.62,18,12.62q18,12.62,18.12,13.16-.17,2.26-5.31,10.3a87.2,87.2,0,0,1-8.92,12.06c-2.62,2.6-4,4-4.31,4.11s1,1.18,4.09,3.34c2.87,2,4.35,3.28,4.45,3.83a5.83,5.83,0,0,1-.71,2.36,74.45,74.45,0,0,1-16.12,22.69,16.7,16.7,0,0,0-2.91,4.15q-2.24,5.56-8.76,14.55t-9,9.84l.36.49c.21.15.59.46,1.14.92l1.81,1.5c.65.54,1.45,1.14,2.41,1.81l2.87,2,8.94,6.26.79-1.82q1.9-5.1,7.76-13.46t9.33-11a7.09,7.09,0,0,0,1.9-2.71q3.16-8.94,12.93-20.18c2.56-3,4.21-4.54,5-4.72s2.47.66,5.13,2.52l4.47,3.13.68-1.66q2-5.25,8-13.86t9.27-10.86l1.15-.62,18.18,12.73q18,12.61,18.12,13.16a8.54,8.54,0,0,1-.86,2.25,74.31,74.31,0,0,1-16.13,22.69,16.91,16.91,0,0,0-2.9,4.15,78.47,78.47,0,0,1-7.3,12.12,79,79,0,0,1-8.89,11,16.39,16.39,0,0,0-2.9,4.15q-2.29,5.29-8.79,14.41t-8.84,10.09c-.37.06-.72.68-1.07,1.86q-1.57,4.6-8.51,14.37t-9.41,10.88c-.18,0-.37.25-.58.66A13.69,13.69,0,0,0,423,326q-1.56,4.6-8.51,14.36T405,351.2c-.18,0-.38.25-.58.66a13.47,13.47,0,0,0-.6,1.36q-1.58,4.62-8.51,14.37t-9.41,10.88c-.36.07-.72.69-1.07,1.87q-1.78,4.92-8.9,14.92t-9.28,10.38q-.56.09-14.1-9.4l-13.45-9.65.58-1.5q1.66-4.77,7.7-13.38t9.38-11a7.83,7.83,0,0,0,2-2.87q1.9-5.08,7.76-13.46t9.33-10.94a7.14,7.14,0,0,0,1.89-2.71q1.9-5.08,7.82-13.54t9.38-11a7.09,7.09,0,0,0,1.9-2.71q1.91-5.09,7.76-13.46T414,279a8.16,8.16,0,0,0,2-2.87q1.89-5.08,7.76-13.46t9.32-10.95l1.21-1.05-4.46-3.13c-3.09-2.16-4.6-3.05-4.53-2.69q-.12,2.53-6.43,11.9t-10.51,13.32a15.09,15.09,0,0,0-2.8,4q-2.24,5.56-8.81,14.63t-9.08,9.92c-.37.07-2-.95-5-3s-4.42-2.86-4.64-2.54q-.12,2.54-6.38,11.82t-10.46,13.24a16.39,16.39,0,0,0-2.9,4.15q-2.34,5.73-9.12,14.89t-8.67,9.5q-.54.09-9.63-6.27l-9-6.53.57-1.5q1.79-4.92,7.77-13.46T339.53,308a7.16,7.16,0,0,0,1.9-2.71q1.89-5.1,7.82-13.54t9.38-11l1.26-.78-4.52-3.4-4.51-3.39.57-1.5q1.68-4.77,7.71-13.39t9.38-11a6.66,6.66,0,0,0,2.17-2.76q1.89-5.09,7.68-13.51t9.24-11L389,219l-4.47-3.13q-4.63-3.24-4.53-2.7-.28,3.14-7.88,14-8,11.48-10.66,12.5c-.36.07-.72.69-1.07,1.87q-1.56,4.6-8.51,14.36t-9.4,10.89c-.18,0-.38.25-.58.66a13.47,13.47,0,0,0-.6,1.36q-1.57,4.61-8.51,14.37T323.37,294c-.18,0-.37.25-.58.66a13.69,13.69,0,0,0-.6,1.37q-1.56,4.6-8.51,14.36t-9.4,10.89c-.37.06-.72.68-1.07,1.86q-1.8,4.93-8.9,14.93T285,348.46q-.54.09-14.1-9.4l-13.44-9.65.57-1.5q1.68-4.77,7.7-13.38t9.38-11a8.05,8.05,0,0,0,2-2.87q1.89-5.08,7.76-13.46t9.32-10.95a7.09,7.09,0,0,0,1.9-2.71Q298,268.44,304,260t9.38-11a7.14,7.14,0,0,0,1.89-2.71q1.9-5.1,7.77-13.46t9.32-10.95a7.92,7.92,0,0,0,2-2.87q1.9-5.08,7.76-13.46t9.33-10.94a7.14,7.14,0,0,0,1.89-2.71q1.9-5.1,7.82-13.55t9.38-11a7.09,7.09,0,0,0,1.9-2.71q2-5.25,8-13.86T389.71,139.86Z"/><path class="cls-2" d="M515.92,309.27l1-.73,31.74,22.22q31.74,22.22,31.84,22.76-.16,2.26-5.32,10.31a86.39,86.39,0,0,1-8.92,12.06c-2.61,2.6-4,4-4.3,4.11l.21.38c.31.23.72.55,1.22,1s1.09.92,1.8,1.5,1.51,1.17,2.41,1.81l2.8,1.95q9.09,6.38,9.18,6.91a8.54,8.54,0,0,1-.86,2.25,74.47,74.47,0,0,1-16.13,22.7,16.68,16.68,0,0,0-2.9,4.14q-2.23,5.56-8.81,14.63t-8.93,10q-.54.11-36.75-25.25l-8.29-5.81-7.66-5.36c-2.34-1.64-4.59-3.17-6.76-4.61s-4.07-2.73-5.71-3.88l-4.23-3-2.71-1.9-1.07-.51q-.36,3.56-7.72,14.08-7.6,10.85-10.82,12.4-.27,0,3.82,3t11.69,8.42q7.61,5.44,15.74,11.13,31.74,22.23,31.84,22.77-.16,2.26-5.32,10.3a87.28,87.28,0,0,1-8.91,12.06q-3.93,3.9-4.47,4t-36.75-25.26L421.6,444.32l.58-1.5q1.79-4.94,7.9-13.48t9.46-11l1.1-.89-9-6.53-9-6.52.41-1.61q1.79-4.94,7.84-13.41t9.41-10.89l1.21-1-4.36-3.28L432.57,371l.57-1.5q3.06-8.79,12.94-20.18,3.82-4.45,5-4.72t5.13,2.52l4.46,3.13.69-1.66q2-5.25,8-13.86t9.27-10.87l1.15-.62,8.93,6.26,9.09,6.36.64-1.93q1.89-5.08,8.06-13.72T515.92,309.27ZM551,374.94l1.21-1.05L529.55,358l-7.1-5c-2.28-1.6-4.38-3-6.27-4.27s-3.54-2.36-4.92-3.33a29.77,29.77,0,0,0-3.3-2.07l-1.12-.78q-.36,3.56-7.72,14.08-7.61,10.85-10.82,12.39l2.87,2q2.93,2.28,8.13,6t11.27,8L533.22,401l.68-1.66q1.9-5.09,7.77-13.46T551,374.94Z"/><path class="cls-2" d="M623.1,384.31l1.15-.62,13.56,9.49q13.56,9.49,13.65,10c-.1,1.51-1.88,4.94-5.31,10.3a72.57,72.57,0,0,1-9.08,12c-.48.46-.89.88-1.24,1.27s-.65.69-.89.92l-.71.69a4.16,4.16,0,0,0-.53.58l-.28.4a.61.61,0,0,1-.38.21l-.11.15,3.49,3.16.48.34,1.43,1a31.33,31.33,0,0,1,2.66,2,1.5,1.5,0,0,1,.18,1.44c-.43,1.75-2.3,5.2-5.58,10.35s-6,8.74-8,10.78a7.75,7.75,0,0,0-1.37,1.29c-.67.73-1.08,1.19-1.23,1.41a10.66,10.66,0,0,1-2,1.89q-.54.1-5-3c-2.87-2-4.41-2.85-4.64-2.53q-.1,2.53-6.45,11.76t-10.54,13.18a16.57,16.57,0,0,0-2.9,4.15q-2.28,5.29-8.78,14.41t-8.85,10.09c-.36.06-.72.69-1.07,1.87q-1.78,4.92-8.9,14.92t-9.28,10.37q-.56.11-14.1-9.39L529,519.48l.57-1.5q1.68-4.77,7.71-13.39t9.38-11a7.92,7.92,0,0,0,2-2.87q1.89-5.08,7.76-13.46t9.33-10.94a7.14,7.14,0,0,0,1.89-2.71q1.9-5.1,7.82-13.55t9.38-11a7.09,7.09,0,0,0,1.9-2.71q1.89-5.08,7.76-13.46t9.33-10.94a8.16,8.16,0,0,0,2-2.87q2-5.25,8-13.87T623.1,384.31Zm36.37,25.46,1-.73,27.28,19.1q27.1,19,27.21,19.52-.16,2.26-5.32,10.31a86.46,86.46,0,0,1-8.91,12q-3.93,3.92-4.31,4.12l.21.38c.32.23.72.55,1.22,1s1.09.92,1.8,1.49,1.51,1.18,2.42,1.82l2.79,1.95q9.09,6.36,9.18,6.91a8.54,8.54,0,0,1-.86,2.25A74.31,74.31,0,0,1,697,512.61a16.54,16.54,0,0,0-2.9,4.15A103.25,103.25,0,0,1,678,539.89a16.39,16.39,0,0,0-2.9,4.15q-2.29,5.3-8.79,14.41t-8.84,10.09c-.37.06-.72.68-1.07,1.86q-1.8,4.94-8.9,14.92t-9.29,10.38q-.54.09-14.1-9.4l-13.44-9.65.57-1.5q1.68-4.77,7.71-13.38t9.38-11a8.16,8.16,0,0,0,2-2.87q1.89-5.1,7.76-13.47t9.32-10.94a7.09,7.09,0,0,0,1.9-2.71q1.89-5.09,7.82-13.54t9.38-11a7.28,7.28,0,0,0,1.9-2.71q1.89-5.1,7.81-13.55t9.38-11l1.1-.89-22.53-16-22.7-16.13.57-1.5q1.79-4.92,8.07-13.72T659.47,409.77Z"/><path class="cls-2" d="M758.84,479.34l1.15-.62,13.56,9.49q13.56,9.5,13.65,10a9,9,0,0,1-.86,2.25,75.64,75.64,0,0,1-16.24,22.85,15.49,15.49,0,0,0-2.79,4,79.71,79.71,0,0,1-7.36,12.2,76.79,76.79,0,0,1-8.83,10.93,16.43,16.43,0,0,0-2.91,4.15q-2.24,5.57-8.81,14.62t-8.93,10q-.54.09,4.09,3.33c2.87,2,4.33,3.2,4.4,3.56q-.16,2.26-5.26,10.22a89.37,89.37,0,0,1-9,12.14c-2.44,2.57-3.87,3.94-4.31,4.12q-.27,0,2.07,1.8t6.66,4.9c2.89,2.11,5.87,4.23,9,6.39l18.18,12.73-.35,1.18q-1,4.1-8.6,14.66t-9.81,11q-.54.09-27.66-18.89l-27.16-19.25.58-1.5q1.79-4.93,7.89-13.49t9.46-11l1.1-.9-9-6.52-9-6.53.58-1.5q1.78-4.92,7.76-13.46t9.32-10.94a7.16,7.16,0,0,0,1.9-2.71q1.9-5.1,7.82-13.54t9.38-11a7.09,7.09,0,0,0,1.9-2.71q1.89-5.08,7.76-13.46t9.32-10.94a7.92,7.92,0,0,0,2-2.87q2-5.25,8-13.86T758.84,479.34Zm81.67,57.18,1.15-.62,13.55,9.49q13.56,9.5,13.66,10a9,9,0,0,1-.86,2.25,75.56,75.56,0,0,1-16.24,22.86,15,15,0,0,0-2.8,4,79.16,79.16,0,0,1-7.35,12.2,76.72,76.72,0,0,1-8.84,10.93,16.34,16.34,0,0,0-2.9,4.14,103.25,103.25,0,0,1-16.19,23.13,16.43,16.43,0,0,0-2.91,4.15q-2.28,5.29-8.78,14.41t-8.85,10.09c-.36.06-.71.68-1.06,1.86q-1.53,4.89-8.77,14.9t-9.42,10.4q-.54.09-14.1-9.4l-13.45-9.65.58-1.5q1.67-4.77,7.7-13.38t9.38-11l1.22-1-4.36-3.29-4.51-3.4.57-1.5q3.06-8.79,12.83-20,3.82-4.46,5-4.73t5.13,2.52l4.46,3.13.69-1.66q1.89-5.09,7.81-13.54t9.38-11a7.16,7.16,0,0,0,1.9-2.71q1.9-5.09,7.76-13.46t9.33-10.95a7.83,7.83,0,0,0,2-2.87q2-5.24,8-13.86T840.51,536.52Z"/><path class="cls-2" d="M949.93,572.72l1.1-.89,18.18,12.73q17.87,12.51,18,13.32-.21,2-5.33,10.17a76.42,76.42,0,0,1-8.56,11.71,14.09,14.09,0,0,0-1.44,1.37,14.28,14.28,0,0,0-1.16,1.33,20.11,20.11,0,0,0-3.24,4.62q-2.36,5.73-9.06,14.81t-8.89,9.47q-.54.09-18.57-12.52L912.9,626l.58-1.5q1.78-4.94,7.76-13.46t9.32-11a10,10,0,0,0,2.06-2.6q2-5.24,8-13.86T949.93,572.72ZM873.77,681.5l1-.73,18.18,12.73q18,12.62,18.12,13.16-.21,2-5.33,10.17a75.75,75.75,0,0,1-8.56,11.71,12.44,12.44,0,0,0-1.49,1.46,16.27,16.27,0,0,0-1.22,1.4,18.76,18.76,0,0,0-3.13,4.47q-2.36,5.71-9.12,14.89t-8.94,9.54q-.54.09-18.57-12.52l-18.07-12.89.58-1.5q1.66-4.77,7.7-13.38t9.38-11a6.58,6.58,0,0,0,2.17-2.76q2-5.25,8-13.87T873.77,681.5Z"/><path class="cls-2" d="M1077.49,621.38l1.15-.62,13.55,9.49q13.41,9.39,13.5,9.92-.17,2.28-5.31,10.31a87.2,87.2,0,0,1-8.92,12.06q-3.93,3.9-4.31,4.11l1.12.78a38.27,38.27,0,0,0,3.1,2.53c1.4,1.06,2.89,2.15,4.49,3.26q8.78,6.15,8.92,7-.16,2.27-5.26,10.22a86.67,86.67,0,0,1-8.86,12c-2.7,2.72-4.17,4.14-4.42,4.28l1,.94c.75.52,1.82,1.31,3.22,2.37s2.89,2.14,4.49,3.26q8.92,6.25,9,6.8-.17,2.26-5.32,10.3a87.28,87.28,0,0,1-8.91,12.06c-2.62,2.6-4.06,4-4.31,4.11l.21.39c.31.22.72.54,1.22,1s1.09.93,1.8,1.5,1.51,1.18,2.41,1.81l2.8,2q9.09,6.38,9.18,6.91c-.1,1.51-1.88,5-5.31,10.31a86.38,86.38,0,0,1-8.92,12q-3.93,3.92-4.3,4.12-.55.09-9.64-6.27l-2-1.4c-.69-.48-1.35-.9-2-1.26a19.84,19.84,0,0,1-1.73-1.09,14.49,14.49,0,0,0-1.41-.87,9.15,9.15,0,0,1-1.1-.64l-.63-.45-.28.05q-.35,3.55-7.61,13.92-7.7,11-10.92,12.55c-.37.07-3.52-2-9.48-6.15l-2.79-2c-.9-.63-1.75-1.18-2.53-1.65s-1.46-.91-2-1.32l-1.35-.94-.43-.07q-.36,3.56-7.72,14.09-7.6,10.85-10.82,12.39-.81.13-9.59-6l-2.79-2c-.9-.64-1.75-1.19-2.53-1.65s-1.46-.91-2-1.32a5.51,5.51,0,0,0-1.46-.79l-.32-.22q-.3,3.12-8.33,14.61T972.8,830q-.54.1-14.1-9.39l-13.45-9.65.42-1.61q1.79-4.94,8.06-13.73t9.41-10.89l1.15-.62,8.93,6.26,9.09,6.36.64-1.93q1.89-5.09,8.06-13.73t9.41-10.88l1-.73,9.09,6.36,9.09,6.37.53-1.77q1.89-5.1,8.06-13.73t9.4-10.89l1.1-.89,9.1,6.37,8.93,6.25.68-1.66q1.9-5.08,7.82-13.54t9.38-11l1.26-.78-9.14-6.64-9-6.53.58-1.49q1.79-4.94,7.76-13.47t9.32-10.94l1.37-.94-9-6.52-9.25-6.48.58-1.5q1.79-4.93,7.89-13.49t9.46-11l1.22-1.06-9.1-6.36-9-6.53L1060,646q1.79-4.92,8.06-13.72T1077.49,621.38Z"/></svg>