<svg width="35" height="33" viewBox="0 0 35 33" fill="none" xmlns="http://www.w3.org/2000/svg">
<path d="M1.25 6.06122H33.75C34.4404 6.06122 35 5.45822 35 4.71429V1.34694C35 0.603008 34.4404 0 33.75 0H1.25C0.559609 0 0 0.603008 0 1.34694V4.71429C0 5.45822 0.559609 6.06122 1.25 6.06122ZM1.25 19.5306H33.75C34.4404 19.5306 35 18.9276 35 18.1837V14.8163C35 14.0724 34.4404 13.4694 33.75 13.4694H1.25C0.559609 13.4694 0 14.0724 0 14.8163V18.1837C0 18.9276 0.559609 19.5306 1.25 19.5306ZM1.25 33H33.75C34.4404 33 35 32.397 35 31.6531V28.2857C35 27.5418 34.4404 26.9388 33.75 26.9388H1.25C0.559609 26.9388 0 27.5418 0 28.2857V31.6531C0 32.397 0.559609 33 1.25 33Z" fill="#00C853"/>
</svg>
