<svg width="34" height="34" viewBox="0 0 34 34" fill="none" xmlns="http://www.w3.org/2000/svg">
<path d="M28.6048 33.3759L33.3759 28.6048C34.208 27.7727 34.208 26.4361 33.3759 25.604L24.7719 17L33.3759 8.39599C34.208 7.56392 34.208 6.22728 33.3759 5.39521L28.6048 0.624056C27.7727 -0.208019 26.4361 -0.208019 25.604 0.624056L17 9.22807L8.39599 0.624056C7.56392 -0.208019 6.22728 -0.208019 5.39521 0.624056L0.624056 5.39521C-0.208019 6.22728 -0.208019 7.56392 0.624056 8.39599L9.22807 17L0.624056 25.604C-0.208019 26.4361 -0.208019 27.7727 0.624056 28.6048L5.39521 33.3759C6.22728 34.208 7.56392 34.208 8.39599 33.3759L17 24.7719L25.604 33.3759C26.4272 34.1992 27.7727 34.1992 28.6048 33.3759V33.3759Z" fill="white"/>
</svg>
